<svg width="58" height="58" viewBox="0 0 58 58" fill="none" xmlns="http://www.w3.org/2000/svg">
<rect width="58" height="58" rx="29" fill="#F0F6FF"/>
<path fill-rule="evenodd" clip-rule="evenodd" d="M25.7244 39.306L25.4718 40.0121C26.5458 40.3963 27.6911 40.5833 29.0001 40.5833C35.3974 40.5833 40.5834 35.3973 40.5834 29C40.5834 22.6027 35.3974 17.4167 29.0001 17.4167C22.6028 17.4167 17.4167 22.6027 17.4167 29C17.4167 30.7351 17.7991 32.3829 18.4844 33.8623L18.5149 33.9282C19.0281 35.0354 19.3334 35.6941 19.0758 36.5904C19.0254 36.7659 18.9478 36.9339 18.8435 37.1599C18.8132 37.2255 18.7806 37.296 18.7458 37.3731C18.6093 37.675 18.4404 38.0764 18.4037 38.5234C18.3059 39.7136 19.3541 40.6781 20.5321 40.4818C21.2097 40.3689 21.787 40.071 22.2208 39.8471L22.2208 39.8471C22.3289 39.7914 22.428 39.7402 22.5175 39.6976C22.9851 39.4754 23.3855 39.3556 23.981 39.4957C24.1052 39.5249 24.507 39.667 25.4718 40.0121L25.7244 39.306ZM24.6667 26.0833C24.2525 26.0833 23.9167 26.4191 23.9167 26.8333C23.9167 27.2476 24.2525 27.5833 24.6667 27.5833H33.3334C33.7476 27.5833 34.0834 27.2476 34.0834 26.8333C34.0834 26.4191 33.7476 26.0833 33.3334 26.0833H24.6667ZM23.9167 31.1667C23.9167 30.7525 24.2525 30.4167 24.6667 30.4167H29.0001C29.4143 30.4167 29.7501 30.7525 29.7501 31.1667C29.7501 31.5809 29.4143 31.9167 29.0001 31.9167H24.6667C24.2525 31.9167 23.9167 31.5809 23.9167 31.1667Z" fill="url(#paint0_linear_21_29)"/>
<defs>
<linearGradient id="paint0_linear_21_29" x1="17.4167" y1="29" x2="40.5834" y2="29" gradientUnits="userSpaceOnUse">
<stop stop-color="#0062FF"/>
<stop offset="1" stop-color="#65D1FF"/>
</linearGradient>
</defs>
</svg>
