<svg width="20" height="20" viewBox="0 0 20 20" fill="none" xmlns="http://www.w3.org/2000/svg">
<path d="M19.75 14.7883V18.619C19.7501 18.8933 19.6462 19.1574 19.4592 19.358C19.2722 19.5587 19.0161 19.681 18.7425 19.7002C18.2691 19.7327 17.8823 19.75 17.5833 19.75C8.00992 19.75 0.25 11.9901 0.25 2.41667C0.25 2.11767 0.26625 1.73092 0.299833 1.2575C0.319033 0.983898 0.441296 0.727762 0.641954 0.540776C0.842611 0.353791 1.10672 0.249876 1.381 0.25H5.21167C5.34604 0.249864 5.47567 0.299681 5.57537 0.389772C5.67507 0.479864 5.73773 0.603798 5.75117 0.7375C5.77608 0.986667 5.79883 1.18492 5.8205 1.3355C6.0358 2.838 6.477 4.29932 7.12917 5.66992C7.23208 5.88658 7.16492 6.1455 6.96992 6.28417L4.63208 7.95467C6.06149 11.2853 8.71576 13.9396 12.0464 15.369L13.7148 13.0355C13.7829 12.9402 13.8824 12.8718 13.9959 12.8423C14.1093 12.8128 14.2295 12.824 14.3355 12.8741C15.7059 13.525 17.1669 13.9651 18.6688 14.1795C18.8194 14.2012 19.0177 14.225 19.2647 14.2488C19.3982 14.2625 19.5218 14.3253 19.6117 14.425C19.7016 14.5246 19.7502 14.6541 19.75 14.7883Z" fill="url(#paint0_linear_1_48)"/>
<defs>
<linearGradient id="paint0_linear_1_48" x1="0.25" y1="10" x2="19.7511" y2="10" gradientUnits="userSpaceOnUse">
<stop stop-color="#0062FF"/>
<stop offset="1" stop-color="#65D1FF"/>
</linearGradient>
</defs>
</svg>
